<svg width="864" height="507" viewBox="0 0 864 507" fill="none" xmlns="http://www.w3.org/2000/svg">
<g clip-path="url(#clip0_101_2)">
<path d="M452.308 191.354C458.046 184.085 466.448 181.154 471.074 184.806C475.699 188.459 474.796 197.311 469.055 204.582C466.801 207.518 463.877 209.871 460.527 211.445L435.825 241.937L421.763 230.04L447.608 201.244C448.363 197.619 449.974 194.228 452.308 191.354Z" fill="#FFB6B6"/>
<path d="M361.276 178.308L397.319 239.561L440.953 209.419L458.504 216.421C458.504 216.421 427.497 283.909 400.76 279.52C374.024 275.13 320.825 214.739 326.932 193.65C333.038 172.56 361.276 178.308 361.276 178.308Z" fill="#6C63FF"/>
<path d="M469.922 159.433L449.782 165.38L463.661 212.374L483.801 206.426L469.922 159.433Z" fill="#6C63FF"/>
<path d="M356.752 179.833L357.182 151.11L339.47 140.068L320.209 163.628L356.752 179.833Z" fill="#FFB6B6"/>
<path opacity="0.1" d="M356.752 179.833L357.898 151.826L339.47 140.068L345.731 174.729L356.752 179.833Z" fill="black"/>
<path d="M347.266 153.972C364.664 153.972 378.768 139.868 378.768 122.47C378.768 105.072 364.664 90.9687 347.266 90.9687C329.868 90.9687 315.764 105.072 315.764 122.47C315.764 139.868 329.868 153.972 347.266 153.972Z" fill="#FFB6B6"/>
<path d="M399.77 369.766L394.22 407.496L391.43 426.496L379.81 505.556C365.15 505.096 350.68 504.436 336.43 503.606L338.5 455.466L339.75 426.496L340.57 407.496L341.08 395.536L333.61 367.006C333.61 367.006 331.15 362.436 328.65 356.346C328.21 355.266 327.76 354.136 327.33 352.976C324.23 344.686 321.77 334.816 324.86 329.656C325.01 329.416 325.16 329.186 325.33 328.966C326.73 327.156 330.36 325.806 335.29 324.806C338.3 324.186 341.81 323.706 345.59 323.336C357.03 322.206 371 322.036 381.69 322.146C391.36 322.226 398.34 322.526 398.34 322.526L398.44 325.716L398.45 326.026L398.52 328.446L398.69 334.226L399.12 348.506L399.56 363.016L399.77 369.766Z" fill="#2F2E41"/>
<path d="M399.56 363.016L383.99 394.246L374.14 407.496L360.03 426.496L338.5 455.466L304.36 501.416C287.94 500.136 271.84 498.606 256.13 496.866L297.92 426.496L309.2 407.496L320.09 389.166L327.01 360.496C327.01 360.496 327.01 358.966 327.12 356.516C327.17 355.486 327.24 354.286 327.33 352.976C327.94 344.226 329.79 330.276 335.29 324.806C336.03 324.056 336.84 323.476 337.72 323.076C339.37 322.336 342.12 322.516 345.59 323.336C354.17 325.386 367.13 331.426 378.77 337.426C386.82 341.586 394.23 345.716 399.12 348.506L399.56 363.016Z" fill="#2F2E41"/>
<path d="M324.259 157.551L360.045 174.729C360.045 174.729 397.979 287.1 397.979 292.825C397.979 298.551 408.715 302.13 402.274 308.572C395.832 315.013 414.263 320.469 404.332 325.614C394.401 330.759 332.447 358.904 325.558 356.366C306.558 349.366 326.364 323.644 326.364 323.644C326.364 323.644 312.091 312.15 314.238 306.424C316.386 300.699 301.355 191.191 301.355 191.191L324.259 157.551Z" fill="#6C63FF"/>
<path d="M349.917 129.792L357.823 134.216C357.823 134.216 352.974 119.875 356.513 113.55C360.052 107.225 357.989 102.748 357.989 102.748C357.989 102.748 370.613 106.905 373.938 101.705C377.262 96.506 378.362 93.7989 367.534 89.4012C356.706 85.0035 360.779 88.1134 360.779 88.1134C360.779 88.1134 351.533 84.6005 353.569 86.1555C355.606 87.7105 345.904 83.5274 347.271 85.5379C348.637 87.5485 341.186 83.7946 342.553 85.8052C343.92 87.8157 325.29 90.6805 329.123 91.9946C332.956 93.3086 313.416 94.8331 314.003 110.111C314.59 125.39 303.949 129.724 311.801 134.164C319.653 138.605 330.613 157.611 330.613 157.611L339.856 151.328C339.856 151.328 337.078 126.761 349.917 129.792Z" fill="#2F2E41"/>
<path d="M282.808 293.49C291.993 292.301 298.823 286.597 298.065 280.753C297.307 274.908 289.248 271.136 280.061 272.327C276.384 272.753 272.863 274.053 269.792 276.118L230.941 281.65L233.926 299.826L271.909 292.443C275.406 293.657 279.144 294.017 282.808 293.49Z" fill="#A0616A"/>
<path d="M164.037 213.731L174.694 293.06C174.694 293.06 177.625 310.121 204.306 307.609C230.988 305.096 266.051 294.749 266.051 294.749L263.77 276.225L233.968 279.453C233.968 279.453 220.057 276.078 217.296 278.354C214.534 280.63 215.802 283.295 213.071 279.981C210.34 276.667 211.711 274.609 209.32 277.507C206.929 280.405 206.443 285.443 205.011 279.204C203.579 272.964 200.914 274.233 200.914 274.233L199.398 216.123C199.398 216.123 191.393 188.404 176.771 197.672C162.15 206.939 164.037 213.731 164.037 213.731Z" fill="#E6E6E6"/>
<path d="M210.743 150.44H157.967V228.423H210.743V150.44Z" fill="#2F2E41"/>
<path d="M169.814 204.645L171.662 182.309H196.237L201.685 205.973L169.814 204.645Z" fill="#A0616A"/>
<path opacity="0.1" d="M169.814 204.645L171.662 182.309H196.237L201.685 205.973L169.814 204.645Z" fill="black"/>
<path d="M214.335 166.856C216.711 152.212 206.766 138.414 192.122 136.037C177.478 133.661 163.68 143.606 161.303 158.25C158.927 172.894 168.872 186.692 183.516 189.069C198.161 191.445 211.958 181.5 214.335 166.856Z" fill="#A0616A"/>
<path d="M194.595 134.292C194.595 134.292 194.595 123.264 184.355 125.627C174.115 127.99 170.964 131.929 170.964 131.929C170.964 131.929 167.026 138.23 160.724 139.018C154.422 139.806 148.908 157.923 149.696 161.862C150.484 165.8 154.422 176.04 148.908 180.766C143.394 185.493 135.517 192.582 137.88 199.671C140.244 206.761 147.333 224.878 147.333 224.878C147.333 224.878 127.56 227.768 129.175 240.108C129.175 240.108 138.668 232.755 151.272 232.755C163.875 232.755 162.299 209.89 162.299 209.89C162.299 209.89 163.087 195.733 165.45 191.794C167.813 187.856 164.662 165.8 176.478 153.984C188.294 142.169 194.595 134.292 194.595 134.292Z" fill="#2F2E41"/>
<path d="M191.444 131.929C191.444 131.929 206.411 135.08 211.925 150.046C217.439 165.012 214.654 167.797 214.654 167.797C214.654 167.797 215.873 176.809 222.564 179.969C229.254 183.13 223.74 196.521 223.74 196.521C223.74 196.521 225.316 209.912 246.584 214.638C267.852 219.364 219.913 255.607 219.913 255.607C219.913 255.607 223.36 238.502 201.304 237.714C179.248 236.926 205.623 196.521 205.623 196.521L207.986 170.526C207.986 170.526 203.26 140.593 189.081 136.655C174.903 132.716 191.444 131.929 191.444 131.929Z" fill="#2F2E41"/>
<path d="M229.58 370.486L224.14 407.496L221.35 426.496L216.62 458.636L211.83 491.206C206.16 490.386 200.56 489.536 195.03 488.656C185.53 487.146 176.23 485.556 167.13 483.876L168.9 442.546L169.59 426.496L170.41 407.496L170.89 396.246L163.41 367.716C163.41 367.716 147.98 338.986 155.14 329.686C155.47 329.266 155.91 328.866 156.47 328.496C158.29 327.266 161.29 326.286 165.06 325.526C173.97 323.706 187.17 323.046 199.2 322.876C214.64 322.656 228.14 323.246 228.14 323.246L228.22 325.596L228.37 330.696L229.58 370.486Z" fill="#2F2E41"/>
<path d="M229.58 370.486L224.14 407.496L221.35 426.496L216.62 458.636L195.03 488.656C185.53 487.146 176.23 485.556 167.13 483.876C160.44 482.646 153.87 481.366 147.4 480.046L168.9 442.546L178.1 426.496L188.98 407.496L194.21 398.376L198.76 390.436L202.09 375.636L204.65 364.286L205.24 361.666C205.24 361.666 205.18 357.546 205.57 352.016C206.17 343.636 207.82 331.996 212.36 326.526C213.24 325.446 214.24 324.616 215.37 324.086C217.73 322.976 222.39 323.736 228.22 325.596L228.37 330.696L229.58 370.486Z" fill="#2F2E41"/>
<path d="M203.451 204.79L202.796 204.605L170.528 195.485L144.761 230.556L161.939 303.561L155.497 332.907C155.497 332.907 207.746 319.308 228.502 330.759C228.502 330.759 229.934 324.233 228.502 321.055C227.071 317.876 224.923 304.649 227.071 298.737C229.218 292.825 222.776 264.912 222.776 264.912C222.776 264.912 224.923 246.303 215.619 236.998C206.314 227.693 203.451 204.79 203.451 204.79Z" fill="#E6E6E6"/>
<path d="M194.495 399.541C196.809 408.508 203.311 414.583 209.018 413.109C214.724 411.636 217.473 403.173 215.157 394.203C214.281 390.607 212.557 387.273 210.129 384.48L199.845 346.609L182.176 351.814L194.19 388.595C193.416 392.216 193.52 395.969 194.495 399.541Z" fill="#A0616A"/>
<path d="M199.18 237.024C199.18 237.024 189.173 209.979 178.204 211.74C167.236 213.501 157.236 230.501 157.236 230.501L165.165 326.708L186.944 381.609L210.047 372.501L198.047 317.633L199.18 237.024Z" fill="#E6E6E6"/>
<path opacity="0.7" d="M699.55 69.9964V484.626C699.22 484.696 698.89 484.756 698.55 484.806C693.48 485.726 688.34 486.606 683.14 487.466C676.96 488.486 670.69 489.476 664.34 490.426C659.06 491.206 653.73 491.966 648.34 492.696C632.65 494.846 616.52 496.756 600 498.416C594.71 498.956 589.37 499.466 584 499.946C537.05 504.166 487.15 506.446 435.41 506.446C428.08 506.446 420.8 506.396 413.55 506.306C413.21 506.306 412.88 506.306 412.55 506.296V69.9964H699.55Z" fill="#F2F2F2"/>
<path d="M698.55 206.786V208.016L698.68 207.756C698.67 207.436 698.62 207.116 698.55 206.786ZM412.55 337.426L411.55 336.616V426.496H412.55V506.296C412.88 506.306 413.21 506.306 413.55 506.306V276.806C413.22 276.986 412.89 277.156 412.55 277.326V337.426ZM411.55 68.9964V506.276C411.88 506.286 412.21 506.296 412.55 506.296C412.88 506.306 413.21 506.306 413.55 506.306V70.9964H698.55V484.806C698.89 484.756 699.22 484.696 699.55 484.626C699.88 484.576 700.22 484.516 700.55 484.446V68.9964H411.55Z" fill="#3F3D56"/>
<path d="M437.047 383.501C447.54 383.501 456.047 374.994 456.047 364.501C456.047 354.008 447.54 345.501 437.047 345.501C426.553 345.501 418.047 354.008 418.047 364.501C418.047 374.994 426.553 383.501 437.047 383.501Z" fill="#FACC15"/>
<path d="M434.587 359.236C441.407 365.501 450.168 367.06 454.155 362.719C458.141 358.378 455.843 349.782 449.019 343.515C446.328 340.975 443.067 339.116 439.51 338.094L410.276 311.915L398.283 325.895L428.376 350.219C429.696 353.678 431.826 356.77 434.587 359.236Z" fill="#FFB6B6"/>
<path d="M350.094 220.332C350.094 220.332 326.982 203.086 318.737 210.531C310.492 217.976 311.352 237.681 311.352 237.681L370.35 314.086L418.495 348.3L432.923 328.088L393.002 288.582L350.094 220.332Z" fill="#6C63FF"/>
<path d="M600 392.496V498.416C594.71 498.956 589.37 499.466 584 499.946V392.496H600Z" fill="#3F3D56"/>
<path d="M16 392.496V440.596C10.41 438.126 5.06995 435.586 0 432.996V392.496H16Z" fill="#3F3D56"/>
<path d="M593.995 407.498H10.9954V426.498H593.995V407.498Z" fill="#6C63FF"/>
<path d="M723.182 126.67C723.182 126.67 712.515 132.926 716.014 139.112C719.512 145.298 724.389 153.725 721.08 156.378C717.772 159.032 712.309 170.733 712.309 170.733C712.309 170.733 688.994 167.477 691.183 185.588C693.372 203.699 704.325 206.168 694.937 214.135C685.549 222.103 704.694 231.632 704.694 231.632C704.694 231.632 717.911 227.513 720.926 214.847C723.942 202.182 718.238 224.532 720.151 226.134C722.064 227.737 729.491 238.3 734.747 224.256C740.002 210.212 734.798 204.766 741.742 196.477C748.687 188.189 753.408 174.782 753.201 172.438C752.995 170.095 761.145 148.709 748.6 140.369C736.055 132.029 723.182 126.67 723.182 126.67Z" fill="#2F2E41"/>
<path d="M632.642 324.175C627.294 330.2 619.851 332.325 616.017 328.921C612.183 325.518 613.411 317.875 618.761 311.849C620.865 309.412 623.522 307.515 626.51 306.316L649.49 281.073L661.105 292.109L637.218 315.822C636.382 318.932 634.813 321.797 632.642 324.175Z" fill="#FFB6B6"/>
<path d="M699.838 205.41C699.838 205.41 713.775 192.607 719.654 196.917C725.534 201.227 726.289 214.149 726.289 214.149L692.875 267.97L644.683 308.591L633.914 296.359L676.384 252.833L699.838 205.41Z" fill="#FACC15"/>
<path d="M728.081 176.403L720.532 203.237H761.968L748.324 170.173L728.081 176.403Z" fill="#FFB6B6"/>
<path opacity="0.1" d="M728.081 176.403L720.532 203.237H761.968L748.324 170.173L728.081 176.403Z" fill="black"/>
<path d="M749.093 264.958L773.39 322.357L691.164 318.296L696.752 264.958H749.093Z" fill="#FFB6B6"/>
<path d="M725.324 189.498L759.611 188.069L782.468 228.07L762.468 292.357L692.467 299.5L700.047 237.501L703.895 202.355L725.324 189.498Z" fill="#FACC15"/>
<path d="M782.47 376.206C780.82 384.196 779.03 395.146 777.28 407.016C776.37 413.196 775.47 419.626 774.61 426.016C772.39 442.406 770.41 458.536 769.1 469.516C758.22 472.336 746.91 475.026 735.2 477.566L729.15 426.016L726.92 407.016L724.61 387.356L723.57 407.016L722.56 426.016L719.66 480.806C713.39 482.066 707.02 483.276 700.55 484.446C700.22 484.516 699.88 484.576 699.55 484.626C699.22 484.696 698.89 484.756 698.55 484.806C693.48 485.726 688.34 486.606 683.14 487.466L682.28 426.016L682.01 407.016L681.04 338.076L689.49 310.156L692.04 309.926L698.55 309.336L699.55 309.246L700.55 309.146L765.31 303.266L767.47 303.066C767.47 303.066 769.01 306.076 771.13 311.086C771.31 311.506 771.5 311.946 771.69 312.396C773.52 316.796 775.7 322.506 777.69 328.956C780.32 337.436 782.63 347.196 783.4 356.906C783.92 363.496 783.74 370.056 782.47 376.206Z" fill="#2F2E41"/>
<path d="M784.999 350.142C784.396 358.175 779.763 364.376 774.651 363.991C769.538 363.607 765.884 356.784 766.487 348.748C766.685 345.535 767.648 342.415 769.298 339.651L772.28 305.646L788.208 307.385L783.577 340.724C784.796 343.704 785.284 346.934 784.999 350.142Z" fill="#FFB6B6"/>
<path d="M766.477 214.947C766.477 214.947 769.805 196.318 777.094 196.183C784.383 196.048 792.814 205.869 792.814 205.869L798.851 268.931L785.132 330.448L769.154 327.244L776.56 266.883L766.477 214.947Z" fill="#FACC15"/>
<path d="M737.926 182.234C751.708 182.234 762.88 171.062 762.88 157.28C762.88 143.498 751.708 132.326 737.926 132.326C724.144 132.326 712.972 143.498 712.972 157.28C712.972 171.062 724.144 182.234 737.926 182.234Z" fill="#FFB6B6"/>
<path d="M728.36 129.415C728.36 129.415 724.201 141.06 730.856 143.555C737.51 146.051 746.66 149.378 745.828 153.537C744.997 157.696 748.324 170.173 748.324 170.173C748.324 170.173 728.361 182.65 741.669 195.127C754.978 207.604 764.96 202.463 762.88 214.599C760.801 226.735 781.596 221.745 781.596 221.745C781.596 221.745 789.082 210.099 783.259 198.454C777.437 186.809 787.418 207.604 789.914 207.604C792.409 207.604 804.886 210.931 799.895 196.791C794.905 182.65 787.418 181.818 787.418 171.005C787.418 160.191 782.428 146.883 780.764 145.219C779.1 143.555 771.614 121.929 756.642 123.592C741.669 125.256 728.36 129.415 728.36 129.415Z" fill="#2F2E41"/>
<path d="M616.626 289.527L596.486 295.475L610.364 342.469L630.505 336.521L616.626 289.527Z" fill="#6C63FF"/>
<path d="M286.626 249.527L266.486 255.475L280.364 302.469L300.505 296.521L286.626 249.527Z" fill="#6C63FF"/>
<path d="M664.34 392.016V490.426C659.06 491.206 653.73 491.966 648.34 492.696V392.016H664.34Z" fill="#3F3D56"/>
<path d="M863.656 407.015H659.341V426.015H863.656V407.015Z" fill="#6C63FF"/>
<path d="M348.856 76.5663C362.155 76.5663 372.936 65.7856 372.936 52.487C372.936 39.1884 362.155 28.4078 348.856 28.4078C335.558 28.4078 324.777 39.1884 324.777 52.487C324.777 65.7856 335.558 76.5663 348.856 76.5663Z" fill="#E6E6E6"/>
<path d="M752.163 114.546C765.462 114.546 776.243 103.765 776.243 90.4666C776.243 77.168 765.462 66.3874 752.163 66.3874C738.865 66.3874 728.084 77.168 728.084 90.4666C728.084 103.765 738.865 114.546 752.163 114.546Z" fill="#E6E6E6"/>
<path d="M355.443 58.62C354.153 58.5532 352.863 58.5235 351.573 58.5134C352.429 53.6968 353.285 48.8802 354.141 44.0636C354.338 42.9572 354.01 41.836 352.992 41.2403C352.021 40.6722 350.766 40.863 349.962 41.6313C347.585 43.9046 345.208 46.1779 342.831 48.4512C341.855 49.3846 341.892 51.047 342.831 51.9867C343.806 52.9618 345.388 52.9228 346.367 51.9867C346.892 51.4843 347.418 50.9819 347.943 50.4794L346.495 58.6236C345.086 58.6939 343.677 58.7856 342.27 58.9238C340.926 59.0558 339.77 59.9783 339.77 61.4238C339.77 62.8038 340.915 63.8937 342.27 63.9238C344.347 63.97 346.424 64.0162 348.502 64.0625C349.019 64.074 349.588 63.8654 350.047 63.52C351.845 63.5029 353.644 63.5268 355.443 63.6201C356.792 63.6901 357.943 62.4209 357.943 61.1201C357.943 59.708 356.796 58.6902 355.443 58.62Z" fill="white"/>
<path d="M543.067 48.1585C556.365 48.1585 567.146 37.3778 567.146 24.0792C567.146 10.7806 556.365 0 543.067 0C529.768 0 518.988 10.7806 518.988 24.0792C518.988 37.3778 529.768 48.1585 543.067 48.1585Z" fill="#6C63FF"/>
<path d="M549.653 30.2122C548.363 30.1453 547.073 30.1157 545.783 30.1055C546.639 25.289 547.495 20.4724 548.351 15.6558C548.548 14.5494 548.221 13.4282 547.203 12.8325C546.231 12.2644 544.976 12.4552 544.173 13.2235C541.796 15.4968 539.419 17.7701 537.042 20.0434C536.066 20.9768 536.102 22.6392 537.042 23.5789C538.017 24.554 539.599 24.515 540.577 23.5789C541.103 23.0765 541.628 22.5741 542.153 22.0716L540.706 30.2158C539.296 30.2861 537.887 30.3778 536.481 30.516C535.137 30.648 533.981 31.5705 533.981 33.016C533.981 34.396 535.125 35.4859 536.481 35.516C538.558 35.5622 540.635 35.6084 542.712 35.6547C543.229 35.6662 543.799 35.4575 544.258 35.1121C546.056 35.0951 547.855 35.119 549.653 35.2122C551.003 35.2823 552.153 34.0131 552.153 32.7122C552.153 31.3002 551.007 30.2824 549.653 30.2122Z" fill="white"/>
<path d="M189.096 114.5C202.394 114.5 213.175 103.72 213.175 90.4211C213.175 77.1225 202.394 66.3418 189.096 66.3418C175.797 66.3418 165.017 77.1225 165.017 90.4211C165.017 103.72 175.797 114.5 189.096 114.5Z" fill="#E6E6E6"/>
<path d="M196.42 97.2464C194.35 96.1764 192.09 95.6064 189.82 95.5264C191.59 92.6764 192.81 89.4764 193.29 86.1764C193.57 84.2064 193.6 82.2364 192.21 80.6464C191.15 79.4264 189.62 78.9564 188.07 78.8064C186.81 78.6864 185.31 78.7664 184.12 79.1664C182.03 79.8464 181.34 81.6464 181.39 83.6964C181.44 85.6464 181.74 87.6264 183.05 89.1564C183.95 90.2064 185.26 90.8964 186.63 91.0064C185.37 93.6064 183.56 95.9064 181.27 97.8364C180.32 98.6264 180.35 100.216 181.07 101.116C181.85 102.096 183.18 102.376 184.3 101.756C187.24 100.116 190.92 100.026 193.9 101.566C195.1 102.186 196.61 101.876 197.32 100.666C197.98 99.5464 197.63 97.8664 196.42 97.2464ZM188.48 84.4464C188.48 84.6064 188.47 84.7564 188.45 84.9164C188.44 85.0064 188.43 85.0864 188.43 85.1364C188.42 85.1864 188.42 85.2264 188.41 85.2364V85.2464C188.37 85.4964 188.31 85.7364 188.27 85.9764C187.87 85.8664 187.45 85.8564 187.04 85.9964C187 86.0064 186.98 86.0064 186.95 86.0164H186.92C186.84 85.9564 186.78 85.9064 186.94 86.0064C186.85 85.9064 186.8 85.8464 186.77 85.8264L186.7 85.6964C186.71 85.7364 186.71 85.7664 186.71 85.7764C186.69 85.7464 186.66 85.6564 186.61 85.4964C186.56 85.3164 186.51 85.1264 186.47 84.9364C186.41 84.6364 186.4 84.2464 186.39 83.8064C186.43 83.8064 186.47 83.7964 186.48 83.7964C186.77 83.7764 187.05 83.7664 187.34 83.7664C187.53 83.7664 187.72 83.7864 187.91 83.7964C187.96 83.8164 188.28 83.8864 188.4 83.9164C188.42 83.9364 188.45 83.9564 188.47 83.9664C188.49 83.9964 188.5 84.0164 188.53 84.0464L188.48 84.4464Z" fill="white"/>
<path d="M755.52 90.1464C757.2 88.8564 758.53 86.9564 758.39 84.7564C758.13 80.6964 754.15 78.8464 750.63 78.1664C749.3 77.9064 747.93 78.5364 747.55 79.9064C747.22 81.1364 747.97 82.7264 749.3 82.9864C749.87 83.0964 750.44 83.2264 751.01 83.3964C751.3 83.4764 751.59 83.5764 751.87 83.6964C751.95 83.7364 752.24 83.8664 752.29 83.8964C752.52 84.0164 752.76 84.1564 752.98 84.3164C753 84.3464 753.12 84.4564 753.2 84.5364C753.02 84.3964 753.36 84.9264 753.36 84.7964C753.38 84.8464 753.39 84.8864 753.4 84.9264V85.0164C753.4 85.0263 753.34 85.2264 753.36 85.2264C753.2 85.4864 753.14 85.6064 753.04 85.7064C752.61 86.1864 752.31 86.3664 751.68 86.6664C750.22 87.3764 748.61 87.7564 747.15 88.4964C744.61 89.7964 746.38 93.8464 749.08 93.0664C749.21 93.0364 749.33 92.9964 749.46 92.9663C749.53 92.9564 749.65 92.9364 749.73 92.9364C749.9 92.9364 750.06 92.9364 750.22 92.9464H750.28C750.61 93.0164 750.94 93.0963 751.25 93.2264C751.29 93.2464 751.35 93.2763 751.4 93.3164C751.54 93.3964 751.69 93.4864 751.83 93.5664L751.99 93.6764L752 93.6864C752.13 93.7864 752.24 93.9064 752.36 94.0164C752.38 94.0364 752.49 94.1664 752.55 94.2264C752.6 94.2964 752.7 94.4264 752.71 94.4464C752.8 94.5964 752.89 94.7564 752.97 94.9164C752.98 94.9464 752.99 94.9964 753 95.0464C753.02 95.1464 753.05 95.2564 753.08 95.3664C753.07 95.4064 753.09 95.5764 753.09 95.6864C753.09 95.7164 753.09 95.7364 753.1 95.7564C753.07 95.8864 753.03 96.0164 753 96.1464C752.99 96.1764 752.99 96.1864 752.99 96.1964C752.9 96.3664 752.8 96.5264 752.71 96.6864C752.7 96.7064 752.68 96.7164 752.67 96.7364V96.7464C752.56 96.8564 752.47 96.9564 752.36 97.0664C752.29 97.1364 752.2 97.2064 752.12 97.2764C752.06 97.3064 751.9 97.4264 751.86 97.4464C751.72 97.5164 751.59 97.5964 751.45 97.6664H751.44C751.43 97.6764 751.42 97.6764 751.41 97.6764C751.22 97.7364 751.04 97.7864 750.86 97.8364H750.83C750.66 97.8364 750.26 97.7864 750.26 97.8064C750.2 97.7964 750.12 97.7763 750.07 97.7664C749.96 97.7064 749.75 97.5964 749.75 97.5964C746.98 95.9364 744.46 100.266 747.22 101.916C751.7 104.596 757.8 100.996 758.08 95.9164C758.21 93.6064 757.15 91.5764 755.52 90.1464Z" fill="white"/>
</g>
<defs>
<clipPath id="clip0_101_2">
<rect width="863.656" height="506.446" fill="white"/>
</clipPath>
</defs>
</svg>
